<svg width="76" height="78" viewBox="0 0 76 78" fill="none" xmlns="http://www.w3.org/2000/svg">
<path d="M21.8147 36.5739C20.6592 36.018 19.578 35.5041 18.4806 34.9321C16.7474 34.0982 14.9771 33.2433 13.2649 32.3723C12.8727 32.1994 12.5387 32.0103 12.1885 31.7632C10.8251 30.7955 10.6597 29.1828 11.7548 27.9405C11.8759 27.8131 11.997 27.6856 12.1343 27.6163C16.2831 24.1819 20.0124 20.363 23.6884 16.4651C27.786 12.1687 31.9207 7.89324 36.0344 3.65493C36.8404 2.83696 37.6834 2.04 38.4894 1.22203C39.5957 0.133035 40.8211 -0.300534 42.3155 0.349193C43.8842 1.04093 45.4787 1.60031 47.0264 2.32917C53.9382 5.70179 61.0391 8.74037 68.1239 11.7208C69.899 12.4804 71.6904 13.2982 73.4236 14.1321C74.0385 14.431 74.6113 14.8042 75.084 15.2678C76.3054 16.4 76.143 18.0722 74.8511 19.0562C74.4345 19.3595 73.9646 19.5836 73.4948 19.8077C72.2385 20.4689 71.0033 21.0929 69.7842 21.775C66.4385 23.7038 63.1299 25.6536 59.7682 27.5243C56.4064 29.395 53.0075 31.2446 49.6085 33.0943C48.6268 33.6168 47.6661 34.1021 46.7054 34.5875C46.4309 34.7261 46.1354 34.9019 45.7026 35.1471C46.0738 35.3571 46.2965 35.4831 46.5192 35.6092C49.5788 37.3897 52.6594 39.1331 55.7189 40.9136C55.9416 41.0396 56.1804 41.2238 56.3821 41.3869C57.6244 42.482 57.5944 44.1802 56.3186 45.2223C55.86 45.5997 55.2739 45.8561 54.7088 46.0753C52.0528 47.2183 49.3807 48.3033 46.7409 49.5044C45.4896 50.0703 44.2494 50.7896 43.0836 51.5509C36.8424 55.5653 30.6594 59.5635 24.4715 63.6571C18.0883 67.836 11.7372 72.1312 5.3911 76.3312C4.91634 76.6505 4.40447 76.9489 3.82327 77.11C2.40737 77.5338 1.26168 76.7874 0.816909 75.4086C0.505913 74.3995 0.554857 73.4472 1.02186 72.5354C1.85574 70.8022 2.6735 69.0109 3.67685 67.3245C7.233 61.3006 10.9005 55.3397 14.4567 49.3158C16.8624 45.238 19.194 41.1181 21.5627 37.0193C21.6999 36.95 21.7468 36.7805 21.8147 36.5739Z" fill="#EA552B"/>
</svg>
